<svg width="1099" height="605" viewBox="0 0 1099 605" fill="none" xmlns="http://www.w3.org/2000/svg">
<path d="M33 601C33 601 -29.9999 314.501 84.5001 273.001C199 231.501 252 246.501 252 246.501L429.5 273.001C429.5 273.001 511 299.501 517 376.001C523 452.501 408.5 488.501 408.5 488.501C408.5 488.501 315 509.501 290.5 452.501C266 395.501 271 391.501 290.5 323.001C310 254.501 355 229.499 408.5 193C462 156.501 458 160.5 504 155C550 149.5 608.5 105.001 679 181.501C749.5 258.001 732.5 283.999 732.5 303.5C732.5 323.001 692.5 357.001 692.5 357.001C692.5 357.001 603 376.001 563 290.501C523 205.001 624 120.501 624 120.501L749.5 50.0007C749.5 50.0007 839.5 -6.99929 957.5 25.5007C1075.5 58.0007 1083.5 120.501 1083.5 120.501" stroke="#F90707" stroke-width="30"/>
</svg>
